<svg version="1.1" id="Layer_1" xmlns="http://www.w3.org/2000/svg" xmlns:xlink="http://www.w3.org/1999/xlink" x="0px" y="0px"
	 width="100%" viewBox="0 0 2048 2048" enable-background="new 0 0 2048 2048" xml:space="preserve">
<path fill="#FFFFFF" opacity="1.000000" stroke="none" 
	d="
M1558.744385,1361.000244 
	C1558.717407,1392.499390 1558.735352,1423.498779 1558.626953,1454.497681 
	C1558.607178,1460.153687 1558.458618,1465.859985 1557.702393,1471.453003 
	C1555.405518,1488.442627 1546.709595,1496.860718 1528.017334,1499.847046 
	C1520.162964,1501.101929 1512.141602,1501.908691 1504.196167,1501.908691 
	C1182.369385,1501.911377 860.542603,1501.798950 538.715820,1501.695679 
	C534.382751,1501.694336 530.029480,1501.333130 525.720276,1501.634766 
	C509.263672,1502.786743 493.640656,1488.486938 492.045593,1471.277710 
	C491.355347,1463.830444 491.247742,1456.308105 491.254883,1448.820312 
	C491.401825,1294.324585 491.617035,1139.828857 491.786011,985.333130 
	C491.835602,940.000732 491.785004,894.668274 491.780334,849.335815 
	C491.780182,847.880371 491.780304,846.424988 491.780304,844.445862 
	C847.481628,844.445862 1202.742432,844.445862 1558.745850,844.445862 
	C1558.745850,1016.331116 1558.745850,1188.415649 1558.744385,1361.000244 
M1443.800781,1275.500000 
	C1443.800781,1239.737427 1443.800781,1203.974854 1443.800781,1167.860107 
	C1433.583008,1167.860107 1424.149048,1167.860107 1414.629883,1167.860107 
	C1414.629883,1144.088745 1414.629883,1120.675659 1414.629883,1096.896729 
	C1423.992554,1096.896729 1432.939087,1096.896729 1442.098145,1096.896729 
	C1445.412720,1039.885498 1422.737671,996.651184 1373.518555,968.900696 
	C1322.089233,939.904053 1270.820435,943.002319 1223.343872,977.879822 
	C1183.419800,1007.209106 1165.660156,1047.867310 1170.475098,1098.105957 
	C1179.953369,1098.105957 1189.214600,1098.105957 1198.294800,1098.105957 
	C1198.294800,1121.528198 1198.294800,1144.584839 1198.294800,1168.016968 
	C1188.365479,1168.016968 1178.954346,1168.016968 1169.453857,1168.016968 
	C1169.453857,1270.149658 1169.453857,1371.901855 1169.453857,1473.879150 
	C1261.098633,1473.879150 1352.435425,1473.879150 1443.799194,1473.879150 
	C1443.799194,1407.802002 1443.799194,1342.151001 1443.800781,1275.500000 
M819.499939,1474.182983 
	C839.589966,1474.182983 859.679993,1474.182983 879.632080,1474.182983 
	C879.632080,1372.399780 879.632080,1270.835449 879.632080,1168.823975 
	C869.781494,1168.823975 860.365723,1168.823975 850.811890,1168.823975 
	C850.811890,1144.778931 850.811890,1121.182495 850.811890,1097.031860 
	C860.466675,1097.031860 869.873962,1097.031860 879.207703,1097.031860 
	C887.916443,1003.950623 803.175171,944.507080 733.778442,950.071350 
	C660.408142,955.954163 598.340881,1021.591858 607.598022,1097.541260 
	C616.751343,1097.541260 625.974548,1097.541260 635.119873,1097.541260 
	C635.119873,1121.586060 635.119873,1145.159912 635.119873,1169.069092 
	C625.330872,1169.069092 615.914185,1169.069092 606.293701,1169.069092 
	C606.293701,1270.946777 606.293701,1372.486206 606.293701,1474.183472 
	C677.237793,1474.183472 747.868835,1474.183472 819.499939,1474.182983 
M1012.500244,1168.242065 
	C996.711365,1168.242065 980.922546,1168.242065 964.877319,1168.242065 
	C964.877319,1270.335815 964.877319,1372.130005 964.877319,1473.971436 
	C1004.983887,1473.971436 1044.716309,1473.971436 1084.605957,1473.971436 
	C1084.605957,1372.001465 1084.605957,1270.320801 1084.605957,1168.237183 
	C1060.725586,1168.237183 1037.112915,1168.237183 1012.500244,1168.242065 
M1079.515015,902.987732 
	C1065.232666,894.829407 1050.016968,889.058716 1033.694214,887.097351 
	C1009.933411,884.242188 988.274902,890.655640 968.439087,903.701111 
	C916.854126,937.627136 910.041809,1000.172424 941.668396,1041.509766 
	C965.234985,1072.312500 996.468079,1087.562988 1034.998657,1082.780762 
	C1083.709595,1076.735107 1118.137329,1043.312378 1123.404297,996.046875 
	C1127.666382,957.800049 1114.734497,924.076660 1079.515015,902.987732 
M1142.906494,1447.500000 
	C1142.906494,1354.397217 1142.906494,1261.294312 1142.906494,1167.997314 
	C1132.626953,1167.997314 1123.020142,1167.997314 1112.942139,1167.997314 
	C1112.942139,1270.055786 1112.942139,1372.078735 1112.942139,1474.184570 
	C1123.107056,1474.184570 1132.896729,1474.184570 1142.907959,1474.184570 
	C1142.907959,1465.468628 1142.907959,1456.984375 1142.906494,1447.500000 
M937.138611,1436.500000 
	C937.138611,1347.235596 937.138611,1257.971069 937.138611,1168.442627 
	C927.004639,1168.442627 917.261658,1168.442627 907.205200,1168.442627 
	C907.205200,1270.535767 907.205200,1372.426880 907.205200,1474.540771 
	C917.147339,1474.540771 926.895264,1474.540771 937.139221,1474.540771 
	C937.139221,1462.056519 937.139221,1449.778320 937.138611,1436.500000 
z"/>
<path fill="#FFFFFF" opacity="1.000000" stroke="none" 
	d="
M753.000000,677.983643 
	C1042.428955,677.984436 1331.358032,677.984436 1620.648315,677.984436 
	C1620.648315,687.144653 1620.648315,695.720154 1620.648315,704.691895 
	C1609.121216,704.691895 1597.383789,704.691895 1585.066162,704.691895 
	C1585.066162,744.466858 1585.066162,783.854248 1585.066162,823.605103 
	C1211.457886,823.605103 838.433167,823.605103 464.911682,823.605103 
	C464.911682,784.264160 464.911682,744.857788 464.911682,705.143799 
	C452.617340,705.143799 440.813507,705.143799 428.658417,705.143799 
	C428.658417,696.108093 428.658417,687.376587 428.658417,677.982788 
	C536.699585,677.982788 644.599792,677.982788 753.000000,677.983643 
M1309.500000,704.825745 
	C1036.821289,704.825745 764.142639,704.825745 491.318298,704.825745 
	C491.318298,736.252075 491.318298,766.691162 491.318298,797.110840 
	C846.711426,797.110840 1201.863770,797.110840 1557.011353,797.110840 
	C1557.011353,766.208923 1557.011353,735.788391 1557.011353,704.824951 
	C1474.708374,704.824951 1392.604248,704.824951 1309.500000,704.825745 
z"/>
<path fill="#FFFFFF" opacity="1.000000" stroke="none" 
	d="
M1278.000000,611.964355 
	C1359.997681,612.000610 1441.495239,612.033997 1522.992920,612.074280 
	C1540.327881,612.082825 1552.941284,620.229492 1556.223999,634.914246 
	C1557.858765,642.227234 1557.232910,650.045532 1557.621460,657.477905 
	C1202.085815,657.477905 847.328552,657.477905 492.442322,657.477905 
	C492.442322,650.040039 491.442535,642.461060 492.655518,635.254517 
	C495.002258,621.312256 506.968903,612.803650 522.523010,612.733215 
	C564.687073,612.542175 606.851135,612.257874 649.015320,612.231995 
	C858.510193,612.103394 1068.005127,612.046265 1278.000000,611.964355 
z"/>
<path fill="#FFFFFF" opacity="1.000000" stroke="none" 
	d="
M1443.800049,1276.000000 
	C1443.799194,1342.151001 1443.799194,1407.802002 1443.799194,1473.879150 
	C1352.435425,1473.879150 1261.098633,1473.879150 1169.453857,1473.879150 
	C1169.453857,1371.901855 1169.453857,1270.149658 1169.453857,1168.016968 
	C1178.954346,1168.016968 1188.365479,1168.016968 1198.294800,1168.016968 
	C1198.294800,1144.584839 1198.294800,1121.528198 1198.294800,1098.105957 
	C1189.214600,1098.105957 1179.953369,1098.105957 1170.475098,1098.105957 
	C1165.660156,1047.867310 1183.419800,1007.209106 1223.343872,977.879822 
	C1270.820435,943.002319 1322.089233,939.904053 1373.518555,968.900696 
	C1422.737671,996.651184 1445.412720,1039.885498 1442.098145,1096.896729 
	C1432.939087,1096.896729 1423.992554,1096.896729 1414.629883,1096.896729 
	C1414.629883,1120.675659 1414.629883,1144.088745 1414.629883,1167.860107 
	C1424.149048,1167.860107 1433.583008,1167.860107 1443.800781,1167.860107 
	C1443.800781,1203.974854 1443.800781,1239.737427 1443.800049,1276.000000 
z"/>
<path fill="#FFFFFF" opacity="1.000000" stroke="none" 
	d="
M1013.000244,1168.239624 
	C1037.112915,1168.237183 1060.725586,1168.237183 1084.605957,1168.237183 
	C1084.605957,1270.320801 1084.605957,1372.001465 1084.605957,1473.971436 
	C1044.716309,1473.971436 1004.983887,1473.971436 964.877319,1473.971436 
	C964.877319,1372.130005 964.877319,1270.335815 964.877319,1168.242065 
	C980.922546,1168.242065 996.711365,1168.242065 1013.000244,1168.239624 
z"/>
<path fill="#FFFFFF" opacity="1.000000" stroke="none" 
	d="
M1079.855347,903.123169 
	C1114.734497,924.076660 1127.666382,957.800049 1123.404297,996.046875 
	C1118.137329,1043.312378 1083.709595,1076.735107 1034.998657,1082.780762 
	C996.468079,1087.562988 965.234985,1072.312500 941.668396,1041.509766 
	C910.041809,1000.172424 916.854126,937.627136 968.439087,903.701111 
	C988.274902,890.655640 1009.933411,884.242188 1033.694214,887.097351 
	C1050.016968,889.058716 1065.232666,894.829407 1079.855347,903.123169 
M1026.360229,1057.206421 
	C1041.972534,1056.162476 1056.623779,1051.926392 1069.162476,1042.414673 
	C1092.992188,1024.337524 1100.935425,994.007019 1094.340332,964.358276 
	C1086.649902,929.786255 1053.546997,913.607117 1025.501343,912.226257 
	C1001.003723,911.020081 981.647705,922.635620 966.248413,940.949585 
	C953.440857,956.181213 947.356750,974.031494 950.396118,993.804382 
	C955.943298,1029.893433 988.582275,1057.039062 1026.360229,1057.206421 
z"/>
<path fill="#FFFFFF" opacity="1.000000" stroke="none" 
	d="
M1142.907227,1448.000000 
	C1142.907959,1456.984375 1142.907959,1465.468628 1142.907959,1474.184570 
	C1132.896729,1474.184570 1123.107056,1474.184570 1112.942139,1474.184570 
	C1112.942139,1372.078735 1112.942139,1270.055786 1112.942139,1167.997314 
	C1123.020142,1167.997314 1132.626953,1167.997314 1142.906494,1167.997314 
	C1142.906494,1261.294312 1142.906494,1354.397217 1142.907227,1448.000000 
z"/>
<path fill="#FFFFFF" opacity="1.000000" stroke="none" 
	d="
M937.138916,1437.000000 
	C937.139221,1449.778320 937.139221,1462.056519 937.139221,1474.540771 
	C926.895264,1474.540771 917.147339,1474.540771 907.205200,1474.540771 
	C907.205200,1372.426880 907.205200,1270.535767 907.205200,1168.442627 
	C917.261658,1168.442627 927.004639,1168.442627 937.138611,1168.442627 
	C937.138611,1257.971069 937.138611,1347.235596 937.138916,1437.000000 
z"/>
<path fill="#FFFFFF" opacity="1.000000" stroke="none" 
	d="
M1310.000000,704.825317 
	C1392.604248,704.824951 1474.708374,704.824951 1557.011353,704.824951 
	C1557.011353,735.788391 1557.011353,766.208923 1557.011353,797.110840 
	C1201.863770,797.110840 846.711426,797.110840 491.318298,797.110840 
	C491.318298,766.691162 491.318298,736.252075 491.318298,704.825745 
	C764.142639,704.825745 1036.821289,704.825745 1310.000000,704.825317 
M568.719727,777.388855 
	C573.829102,777.388855 578.938477,777.388855 584.402039,777.388855 
	C584.402039,759.230591 584.402039,741.393799 584.402039,723.541504 
	C565.754028,723.541504 547.503479,723.541504 529.118408,723.541504 
	C529.118408,741.507812 529.118408,759.239929 529.118408,777.385315 
	C542.190491,777.385315 554.981995,777.385315 568.719727,777.388855 
M994.887085,738.503296 
	C994.887085,751.278809 994.887085,764.054321 994.887085,777.051208 
	C1013.049744,777.051208 1031.302368,777.051208 1049.845703,777.051208 
	C1049.845703,759.099487 1049.845703,741.399719 1049.845703,723.429077 
	C1031.415649,723.429077 1013.330383,723.429077 994.889771,723.429077 
	C994.889771,728.244629 994.889771,732.874756 994.887085,738.503296 
M1144.039307,726.804321 
	C1144.235962,724.735229 1143.926880,723.416931 1141.223877,723.432739 
	C1123.814209,723.534546 1106.403931,723.484741 1088.845947,723.484741 
	C1088.845947,741.329224 1088.845947,759.034241 1088.845947,776.875977 
	C1107.300049,776.875977 1125.487427,776.875977 1144.046875,776.875977 
	C1144.046875,760.303711 1144.046875,744.024780 1144.039307,726.804321 
M1276.886597,747.500000 
	C1276.886597,757.255737 1276.886597,767.011475 1276.886597,776.895264 
	C1295.379883,776.895264 1313.433594,776.895264 1331.730713,776.895264 
	C1331.730713,759.084412 1331.730713,741.515259 1331.730713,723.608765 
	C1313.538330,723.608765 1295.473511,723.608765 1276.890747,723.608765 
	C1276.890747,731.279602 1276.890747,738.889771 1276.886597,747.500000 
M623.328796,770.309937 
	C623.328796,772.559448 623.328796,774.808960 623.328796,777.386658 
	C641.390686,777.386658 658.788940,777.386658 676.528076,777.386658 
	C676.528076,759.278625 676.528076,741.395691 676.528076,723.333923 
	C658.790344,723.333923 641.362427,723.333923 623.336487,723.333923 
	C623.336487,738.784241 623.336487,754.068726 623.328796,770.309937 
M956.260986,749.501953 
	C956.260986,740.903015 956.260986,732.304138 956.260986,723.495422 
	C938.144287,723.495422 920.239014,723.495422 902.031006,723.495422 
	C902.031006,741.481689 902.031006,759.208313 902.031006,777.144897 
	C920.214050,777.144897 938.119202,777.144897 956.260376,777.144897 
	C956.260376,768.092773 956.260376,759.296997 956.260986,749.501953 
M1371.744873,752.496460 
	C1371.744873,760.602905 1371.744873,768.709412 1371.744873,776.891541 
	C1389.839722,776.891541 1407.579712,776.891541 1425.595459,776.891541 
	C1425.595459,759.111572 1425.595459,741.566284 1425.595459,723.678223 
	C1407.739624,723.678223 1390.017090,723.678223 1371.751953,723.678223 
	C1371.751953,732.964600 1371.751953,742.231018 1371.744873,752.496460 
M1201.519531,723.624084 
	C1195.566895,723.624084 1189.614136,723.624084 1183.389771,723.624084 
	C1183.389771,741.353577 1183.389771,759.048096 1183.389771,776.788025 
	C1201.695435,776.788025 1219.726929,776.788025 1237.740845,776.788025 
	C1237.740845,758.884399 1237.740845,741.309387 1237.740845,723.626038 
	C1225.808472,723.626038 1214.161011,723.626038 1201.519531,723.624084 
M769.862488,734.536987 
	C769.862488,731.053711 769.862488,727.570435 769.862488,723.668762 
	C752.171265,723.668762 734.629456,723.668762 716.659546,723.668762 
	C716.659546,741.468140 716.659546,759.182922 716.659546,777.159180 
	C734.329346,777.159180 751.885315,777.159180 769.856506,777.159180 
	C769.856506,763.083374 769.856506,749.305542 769.862488,734.536987 
M827.501343,723.273987 
	C821.721069,723.273987 815.940735,723.273987 809.703064,723.273987 
	C809.703064,741.276489 809.703064,758.992615 809.703064,777.069946 
	C827.333496,777.069946 845.025208,777.069946 862.736877,777.069946 
	C862.736877,759.221619 862.736877,741.380249 862.736877,723.274719 
	C851.083374,723.274719 839.792053,723.274719 827.501343,723.273987 
M1516.401123,777.099915 
	C1517.297485,776.505005 1518.725220,776.074707 1518.971680,775.278564 
	C1519.395020,773.911499 1519.077148,772.316101 1519.077026,770.816589 
	C1519.076050,755.187744 1519.076416,739.558960 1519.076416,723.588379 
	C1500.913818,723.588379 1483.205078,723.588379 1465.335083,723.588379 
	C1465.335083,741.425232 1465.335083,759.009827 1465.335083,777.097473 
	C1482.176636,777.097473 1498.795166,777.097473 1516.401123,777.099915 
z"/>
<path fill="#FFFFFF" opacity="1.000000" stroke="none" 
	d="
M1025.884277,1057.212891 
	C988.582275,1057.039062 955.943298,1029.893433 950.396118,993.804382 
	C947.356750,974.031494 953.440857,956.181213 966.248413,940.949585 
	C981.647705,922.635620 1001.003723,911.020081 1025.501343,912.226257 
	C1053.546997,913.607117 1086.649902,929.786255 1094.340332,964.358276 
	C1100.935425,994.007019 1092.992188,1024.337524 1069.162476,1042.414673 
	C1056.623779,1051.926392 1041.972534,1056.162476 1025.884277,1057.212891 
z"/>
<path fill="#FFFFFF" opacity="1.000000" stroke="none" 
	d="
M568.246582,777.387085 
	C554.981995,777.385315 542.190491,777.385315 529.118408,777.385315 
	C529.118408,759.239929 529.118408,741.507812 529.118408,723.541504 
	C547.503479,723.541504 565.754028,723.541504 584.402039,723.541504 
	C584.402039,741.393799 584.402039,759.230591 584.402039,777.388855 
	C578.938477,777.388855 573.829102,777.388855 568.246582,777.387085 
z"/>
<path fill="#FFFFFF" opacity="1.000000" stroke="none" 
	d="
M994.888428,738.004089 
	C994.889771,732.874756 994.889771,728.244629 994.889771,723.429077 
	C1013.330383,723.429077 1031.415649,723.429077 1049.845703,723.429077 
	C1049.845703,741.399719 1049.845703,759.099487 1049.845703,777.051208 
	C1031.302368,777.051208 1013.049744,777.051208 994.887085,777.051208 
	C994.887085,764.054321 994.887085,751.278809 994.888428,738.004089 
z"/>
<path fill="#FFFFFF" opacity="1.000000" stroke="none" 
	d="
M1144.043091,727.275085 
	C1144.046875,744.024780 1144.046875,760.303711 1144.046875,776.875977 
	C1125.487427,776.875977 1107.300049,776.875977 1088.845947,776.875977 
	C1088.845947,759.034241 1088.845947,741.329224 1088.845947,723.484741 
	C1106.403931,723.484741 1123.814209,723.534546 1141.223877,723.432739 
	C1143.926880,723.416931 1144.235962,724.735229 1144.043091,727.275085 
z"/>
<path fill="#FFFFFF" opacity="1.000000" stroke="none" 
	d="
M1276.888672,747.000000 
	C1276.890747,738.889771 1276.890747,731.279602 1276.890747,723.608765 
	C1295.473511,723.608765 1313.538330,723.608765 1331.730713,723.608765 
	C1331.730713,741.515259 1331.730713,759.084412 1331.730713,776.895264 
	C1313.433594,776.895264 1295.379883,776.895264 1276.886597,776.895264 
	C1276.886597,767.011475 1276.886597,757.255737 1276.888672,747.000000 
z"/>
<path fill="#FFFFFF" opacity="1.000000" stroke="none" 
	d="
M623.332642,769.831543 
	C623.336487,754.068726 623.336487,738.784241 623.336487,723.333923 
	C641.362427,723.333923 658.790344,723.333923 676.528076,723.333923 
	C676.528076,741.395691 676.528076,759.278625 676.528076,777.386658 
	C658.788940,777.386658 641.390686,777.386658 623.328796,777.386658 
	C623.328796,774.808960 623.328796,772.559448 623.332642,769.831543 
z"/>
<path fill="#FFFFFF" opacity="1.000000" stroke="none" 
	d="
M956.260681,750.001587 
	C956.260376,759.296997 956.260376,768.092773 956.260376,777.144897 
	C938.119202,777.144897 920.214050,777.144897 902.031006,777.144897 
	C902.031006,759.208313 902.031006,741.481689 902.031006,723.495422 
	C920.239014,723.495422 938.144287,723.495422 956.260986,723.495422 
	C956.260986,732.304138 956.260986,740.903015 956.260681,750.001587 
z"/>
<path fill="#FFFFFF" opacity="1.000000" stroke="none" 
	d="
M1371.748413,751.996948 
	C1371.751953,742.231018 1371.751953,732.964600 1371.751953,723.678223 
	C1390.017090,723.678223 1407.739624,723.678223 1425.595459,723.678223 
	C1425.595459,741.566284 1425.595459,759.111572 1425.595459,776.891541 
	C1407.579712,776.891541 1389.839722,776.891541 1371.744873,776.891541 
	C1371.744873,768.709412 1371.744873,760.602905 1371.748413,751.996948 
z"/>
<path fill="#FFFFFF" opacity="1.000000" stroke="none" 
	d="
M1202.016602,723.625061 
	C1214.161011,723.626038 1225.808472,723.626038 1237.740845,723.626038 
	C1237.740845,741.309387 1237.740845,758.884399 1237.740845,776.788025 
	C1219.726929,776.788025 1201.695435,776.788025 1183.389771,776.788025 
	C1183.389771,759.048096 1183.389771,741.353577 1183.389771,723.624084 
	C1189.614136,723.624084 1195.566895,723.624084 1202.016602,723.625061 
z"/>
<path fill="#FFFFFF" opacity="1.000000" stroke="none" 
	d="
M769.859497,735.032349 
	C769.856506,749.305542 769.856506,763.083374 769.856506,777.159180 
	C751.885315,777.159180 734.329346,777.159180 716.659546,777.159180 
	C716.659546,759.182922 716.659546,741.468140 716.659546,723.668762 
	C734.629456,723.668762 752.171265,723.668762 769.862488,723.668762 
	C769.862488,727.570435 769.862488,731.053711 769.859497,735.032349 
z"/>
<path fill="#FFFFFF" opacity="1.000000" stroke="none" 
	d="
M828.000977,723.274353 
	C839.792053,723.274719 851.083374,723.274719 862.736877,723.274719 
	C862.736877,741.380249 862.736877,759.221619 862.736877,777.069946 
	C845.025208,777.069946 827.333496,777.069946 809.703064,777.069946 
	C809.703064,758.992615 809.703064,741.276489 809.703064,723.273987 
	C815.940735,723.273987 821.721069,723.273987 828.000977,723.274353 
z"/>
<path fill="#FFFFFF" opacity="1.000000" stroke="none" 
	d="
M1515.907471,777.098694 
	C1498.795166,777.097473 1482.176636,777.097473 1465.335083,777.097473 
	C1465.335083,759.009827 1465.335083,741.425232 1465.335083,723.588379 
	C1483.205078,723.588379 1500.913818,723.588379 1519.076416,723.588379 
	C1519.076416,739.558960 1519.076050,755.187744 1519.077026,770.816589 
	C1519.077148,772.316101 1519.395020,773.911499 1518.971680,775.278564 
	C1518.725220,776.074707 1517.297485,776.505005 1515.907471,777.098694 
z"/>
</svg>
